<svg width="190" height="61" viewBox="0 0 190 61" fill="none" xmlns="http://www.w3.org/2000/svg">
<g filter="url(#filter0_d_18_48)">
<path d="M167.568 42.0245C164.342 42.0245 162.729 40.0361 162.729 36.0595C162.729 32.0829 164.32 28.283 167.501 24.6598C167.545 24.6156 167.523 24.461 167.435 24.1958C167.347 23.8866 167.302 23.6656 167.302 23.5331C167.302 23.268 167.391 23.0691 167.568 22.9366C169.114 21.6994 170.926 21.0808 173.002 21.0808C173.577 21.0808 174.041 21.1913 174.394 21.4122C174.836 21.5889 175.256 21.7657 175.653 21.9424C176.051 22.1192 176.427 22.318 176.78 22.5389C178.459 23.5552 179.63 24.6156 180.293 25.7202C181.397 25.676 182.325 25.6319 183.076 25.5877C183.828 25.5435 184.402 25.4993 184.8 25.4551H185.065C185.462 25.4551 185.661 25.6098 185.661 25.9191C185.661 26.0074 185.573 26.0737 185.396 26.1179C184.91 26.2063 184.269 26.3167 183.474 26.4493C182.723 26.5818 181.795 26.7144 180.69 26.8469C180.823 27.1562 180.889 27.5097 180.889 27.9074C180.889 28.2167 180.867 28.4376 180.823 28.5702C180.16 32.1491 178.415 35.2863 175.587 37.9815C172.848 40.6768 170.174 42.0245 167.568 42.0245ZM178.702 25.7202C177.995 24.6156 176.603 24.0633 174.527 24.0633C172.936 24.0633 171.898 24.24 171.412 24.5935C171.279 24.6377 171.147 24.7261 171.014 24.8586C170.881 24.9912 170.727 25.1458 170.55 25.3226C173.024 25.6319 175.742 25.7644 178.702 25.7202ZM167.766 40.964C169.711 40.964 171.942 39.5722 174.46 36.7886C177.023 34.0049 178.548 31.3096 179.034 28.7027C179.078 28.4818 179.1 28.305 179.1 28.1725C179.144 27.9957 179.166 27.8411 179.166 27.7085C179.166 27.4434 179.122 27.1783 179.034 26.9132C178.194 26.9574 177.332 26.9795 176.449 26.9795C175.565 26.9795 174.681 26.9795 173.798 26.9795C172.914 26.9795 172.097 26.9795 171.345 26.9795C170.638 26.9795 169.998 26.9574 169.423 26.9132C167.656 29.2992 166.551 31.2212 166.109 32.6794C165.579 34.3142 165.314 35.8828 165.314 37.385C165.314 39.771 166.132 40.964 167.766 40.964Z" fill="#0D0A0B"/>
</g>
<g filter="url(#filter1_d_18_48)">
<path d="M153.906 42.5546C150.769 41.8918 149.2 40.4337 149.2 38.1803C149.2 36.8548 149.62 34.9327 150.46 32.4142C151.078 30.5142 151.918 28.3492 152.978 25.919C154.083 23.4446 155.453 20.7052 157.087 17.7006C161.02 10.3217 164.002 6.47762 166.035 6.16833C166.212 6.12414 166.499 6.10205 166.896 6.10205C169.062 6.10205 170.144 7.1183 170.144 9.15081C170.144 11.9345 167.802 15.889 163.119 21.0145C160.512 23.9307 157.64 26.5155 154.503 28.7689C152.647 33.1874 151.719 36.435 151.719 38.5117C151.719 39.8814 152.139 40.6988 152.978 40.964C153.641 41.1407 155.187 40.3454 157.618 38.578C160.401 36.5455 162.787 34.0711 164.776 31.1549C165.085 30.7131 165.372 30.4921 165.637 30.4921C165.814 30.4921 165.902 30.5805 165.902 30.7572C165.902 30.934 165.792 31.1991 165.571 31.5526C163.892 34.2479 161.705 36.8106 159.009 39.2408C156.403 41.6267 154.701 42.7314 153.906 42.5546ZM155.232 26.9794C156.822 25.7864 158.148 24.5934 159.208 23.4005L163.119 18.761C166.742 14.4751 168.553 11.3159 168.553 9.28337C168.553 8.8857 168.332 8.68687 167.891 8.68687C167.139 8.68687 165.946 9.7694 164.312 11.9345C163.826 12.6414 163.317 13.3263 162.787 13.9891C162.257 14.6518 161.727 15.3367 161.197 16.0437C160.534 17.0157 159.915 17.9657 159.341 18.8936C158.811 19.8215 158.302 20.7714 157.816 21.7435C157.684 21.9203 157.397 22.4505 156.955 23.3342C156.557 24.2179 155.983 25.433 155.232 26.9794Z" fill="#0D0A0B"/>
</g>
<g filter="url(#filter2_d_18_48)">
<path d="M136.279 41.8257C134.998 41.8257 133.871 41.5164 132.899 40.8978C131.618 40.0141 130.977 38.7328 130.977 37.0537C130.977 35.2421 131.75 33.0329 133.297 30.426C135.374 27.0237 138.422 24.0413 142.443 21.4785C143.459 20.8158 144.476 20.4844 145.492 20.4844C146.818 20.4844 147.768 20.9041 148.342 21.7436C148.695 22.2297 148.872 22.782 148.872 23.4006C148.872 25.2563 147.37 27.2889 144.365 29.4981C143.482 30.1167 142.532 30.6911 141.515 31.2213C140.543 31.7073 139.483 32.0608 138.334 32.2818L135.484 32.8782C134.424 34.7782 133.893 36.3689 133.893 37.6502C133.893 39.4176 134.932 40.3013 137.008 40.3013C138.643 40.3013 140.632 39.6164 142.973 38.2467C146.111 36.4351 148.806 33.9166 151.059 30.6911C151.413 30.1609 151.744 29.8958 152.053 29.8958C152.186 29.8958 152.252 29.9841 152.252 30.1609C152.252 30.3818 152.098 30.7132 151.788 31.155C147.502 37.606 142.664 41.1408 137.274 41.7594C137.097 41.8036 136.92 41.8257 136.743 41.8257C136.611 41.8257 136.456 41.8257 136.279 41.8257ZM136.279 31.7515C137.517 31.7515 139.107 31.1992 141.051 30.0946C143.791 28.5481 145.713 26.5598 146.818 24.1296C147.127 23.511 147.281 23.0029 147.281 22.6053C147.281 22.2076 147.127 22.0088 146.818 22.0088C146.243 22.0088 145.072 22.7157 143.305 24.1296C142.023 25.2343 140.764 26.4272 139.527 27.7086C138.334 28.9458 137.185 30.2713 136.081 31.6853C136.036 31.7294 136.103 31.7515 136.279 31.7515Z" fill="#0D0A0B"/>
</g>
<g filter="url(#filter3_d_18_48)">
<path d="M115.836 42.0907C115.571 42.1791 114.488 41.6047 112.588 40.3675C112.367 40.1466 112.257 39.7269 112.257 39.1083C112.257 36.1921 113.516 31.3317 116.035 24.5272C116.653 22.804 117.493 21.9424 118.553 21.9424C119.084 21.9424 119.547 22.1854 119.945 22.6715C120.387 23.1133 120.542 23.4668 120.409 23.7319C119.923 24.7482 119.393 25.9191 118.818 27.2446C118.288 28.526 117.714 29.962 117.095 31.5526C115.593 35.3967 114.842 38.0478 114.842 39.5059C114.842 40.1245 115.041 40.4338 115.438 40.4338C115.615 40.4338 115.792 40.3675 115.968 40.235C116.675 39.7931 117.714 38.8652 119.084 37.4513C120.453 36.0374 122.154 34.1596 124.187 31.8178C128.605 26.7365 131.455 22.9366 132.737 20.418C133.355 19.2692 133.996 18.6948 134.659 18.6948C135.233 18.6948 135.52 19.0483 135.52 19.7553C135.52 20.418 135.167 21.1692 134.46 22.0087C132.825 23.9528 131.058 26.0074 129.158 28.1725C127.302 30.2934 125.336 32.5247 123.259 34.8665C118.62 39.8594 116.145 42.2675 115.836 42.0907Z" fill="#0D0A0B"/>
</g>
<g filter="url(#filter4_d_18_48)">
<path d="M102.69 42.0244C101.806 42.0244 100.989 41.7372 100.238 41.1628C99.5305 40.5884 99.1108 40.0361 98.9782 39.5058C98.8457 38.8872 99.6631 36.678 101.43 32.8781L99.9061 35.0652C99.2433 36.0373 98.5806 36.8989 97.9178 37.6501C97.255 38.4012 96.6364 39.064 96.062 39.6384C94.383 41.229 92.9691 41.8918 91.8203 41.6267C89.1692 41.0081 87.8436 39.5058 87.8436 37.1198C87.8436 35.2199 88.7494 32.7897 90.561 29.8293C91.1354 28.9456 91.8645 28.0619 92.7482 27.1782C93.6319 26.2945 94.6481 25.4329 95.7969 24.5934C98.7573 22.4284 101.607 21.3458 104.347 21.3458C106.026 21.3458 107.616 21.7877 109.119 22.6714C109.605 23.0249 109.848 23.4004 109.848 23.7981C109.848 24.1074 109.759 24.262 109.583 24.262C109.538 24.262 109.494 24.2399 109.45 24.1958C108.522 23.1795 107.285 22.6714 105.739 22.6714C103.927 22.6714 101.961 23.3562 99.8398 24.726C97.719 26.0957 95.819 27.9294 94.14 30.227C91.754 33.5409 90.561 36.2361 90.561 38.3128C90.561 39.5058 90.9808 40.257 91.8203 40.5663C92.8807 41.0081 95.1341 39.0419 98.5806 34.6676C99.9945 32.9444 101.165 31.3979 102.093 30.0282C103.065 28.6584 103.839 27.4875 104.413 26.5155C104.678 26.0294 105.164 25.7864 105.871 25.7864C107.197 25.7864 107.859 26.1841 107.859 26.9794C107.859 27.112 107.837 27.2003 107.793 27.2445C103.949 33.342 102.027 37.4733 102.027 39.6384C102.027 40.1686 102.182 40.4558 102.491 40.5C103.419 40.7651 104.965 40.0802 107.13 38.4454C109.737 36.5013 112.19 33.9164 114.487 30.6909C114.973 30.0282 115.415 29.6968 115.813 29.6968C115.945 29.6968 116.012 29.741 116.012 29.8293C116.012 30.0503 115.813 30.47 115.415 31.0886C114.487 32.5467 113.449 33.9164 112.3 35.1978C111.195 36.4792 109.958 37.6722 108.588 38.7768C106.644 40.4116 105.054 41.4279 103.816 41.8255C103.507 41.9581 103.132 42.0244 102.69 42.0244Z" fill="#0D0A0B"/>
</g>
<g filter="url(#filter5_d_18_48)">
<path d="M74.8563 41.8257C73.575 41.8257 72.4483 41.5164 71.4762 40.8978C70.1948 40.0141 69.5541 38.7328 69.5541 37.0537C69.5541 35.2421 70.3274 33.0329 71.8738 30.426C73.9505 27.0237 76.9993 24.0413 81.0201 21.4785C82.0364 20.8158 83.0526 20.4844 84.0689 20.4844C85.3944 20.4844 86.3444 20.9041 86.9188 21.7436C87.2723 22.2297 87.449 22.782 87.449 23.4006C87.449 25.2563 85.9467 27.2889 82.9422 29.4981C82.0585 30.1167 81.1085 30.6911 80.0922 31.2213C79.1202 31.7073 78.0597 32.0608 76.9109 32.2818L74.061 32.8782C73.0006 34.7782 72.4703 36.3689 72.4703 37.6502C72.4703 39.4176 73.5087 40.3013 75.5854 40.3013C77.2202 40.3013 79.2085 39.6164 81.5503 38.2467C84.6875 36.4351 87.3828 33.9166 89.6362 30.6911C89.9897 30.1609 90.3211 29.8958 90.6304 29.8958C90.7629 29.8958 90.8292 29.9841 90.8292 30.1609C90.8292 30.3818 90.6745 30.7132 90.3652 31.155C86.0793 37.606 81.2411 41.1408 75.8505 41.7594C75.6738 41.8036 75.497 41.8257 75.3203 41.8257C75.1877 41.8257 75.0331 41.8257 74.8563 41.8257ZM74.8563 31.7515C76.0935 31.7515 77.6842 31.1992 79.6283 30.0946C82.3678 28.5481 84.2898 26.5598 85.3944 24.1296C85.7037 23.511 85.8584 23.0029 85.8584 22.6053C85.8584 22.2076 85.7037 22.0088 85.3944 22.0088C84.82 22.0088 83.6491 22.7157 81.8817 24.1296C80.6004 25.2343 79.3411 26.4272 78.1039 27.7086C76.9109 28.9458 75.7621 30.2713 74.6575 31.6853C74.6133 31.7294 74.6796 31.7515 74.8563 31.7515Z" fill="#0D0A0B"/>
</g>
<g filter="url(#filter6_d_18_48)">
<path d="M51.49 42.0907C50.8714 42.0907 50.5621 41.8919 50.5621 41.4942C50.5621 41.45 50.6063 41.2954 50.6946 41.0303C52.7713 37.0536 55.2236 31.3759 58.0514 23.997C58.3607 23.2016 58.8909 22.5168 59.6421 21.9424C60.3932 21.3238 61.0339 21.0145 61.5641 21.0145C62.1385 21.0145 62.3815 21.3238 62.2932 21.9424C61.8513 22.8703 61.3211 24.0633 60.7025 25.5214C60.0839 26.9795 59.3549 28.6806 58.5154 30.6247C59.7525 28.9899 61.5862 27.1562 64.0164 25.1237C65.2536 24.1074 66.314 23.2679 67.1977 22.6052C68.1256 21.9424 68.8988 21.4563 69.5174 21.147C70.136 20.8378 70.8209 20.6831 71.572 20.6831C72.4557 20.6831 73.2068 20.904 73.8254 21.3459C74.444 21.7877 74.7533 22.2959 74.7533 22.8703C74.7533 23.2237 74.5766 23.6214 74.2231 24.0633C73.9138 24.4609 73.5824 24.6598 73.2289 24.6598C73.0522 24.6598 72.6766 24.483 72.1022 24.1295C71.572 23.7319 70.9976 23.533 70.379 23.533C69.7162 23.533 68.943 23.7319 68.0593 24.1295C62.4478 26.6481 57.6096 32.3258 53.5446 41.1628C53.2794 41.7814 52.5946 42.0907 51.49 42.0907Z" fill="#0D0A0B"/>
</g>
<g filter="url(#filter7_d_18_48)">
<path d="M19.4873 26.0516C14.7153 25.5213 11.0038 24.483 8.35267 22.9365C6.01087 21.4784 4.83997 19.7331 4.83997 17.7006C4.83997 13.9449 8.15383 10.388 14.7816 7.02995C18.4047 5.21837 22.4477 3.78236 26.9103 2.72192C31.373 1.6173 36.2775 0.910341 41.6239 0.601048C43.303 0.512676 44.9599 0.446398 46.5947 0.402214C48.2738 0.35803 49.9307 0.335938 51.5655 0.335938C55.7631 0.335938 59.563 0.490585 62.9652 0.799881C66.4117 1.06499 69.4825 1.48475 72.1778 2.05915C77.966 3.34051 80.8601 5.10791 80.8601 7.36134C80.8601 7.93575 80.6613 8.55433 80.2636 9.21711C79.6009 10.2334 79.0486 10.7415 78.6067 10.7415C78.4742 10.7415 78.4079 10.6752 78.4079 10.5427C78.4079 10.3659 78.5846 9.87988 78.9381 9.08455C79.1148 8.77526 79.2032 8.48806 79.2032 8.22295C79.2032 6.27881 75.58 4.79861 68.3337 3.78236C65.6384 3.42888 62.6118 3.16377 59.2537 2.98703C55.8957 2.81029 52.2062 2.72192 48.1854 2.72192C47.0366 2.72192 45.9099 2.74402 44.8052 2.7882C43.7448 2.7882 42.7285 2.81029 41.7565 2.85448C32.7427 3.20796 24.8557 5.08582 18.0954 8.48806C11.6003 11.7136 8.35267 15.0716 8.35267 18.5622C8.35267 22.1854 12.2851 24.4167 20.15 25.2562C20.7244 25.3004 21.0116 25.433 21.0116 25.6539C21.0116 26.0516 20.5035 26.1841 19.4873 26.0516ZM21.8733 46.3324C20.0617 46.3324 18.6919 45.6034 17.7641 44.1453C17.4106 43.5709 17.2338 43.107 17.2338 42.7535C17.2338 42.4 17.3885 42.2233 17.6978 42.2233C17.9629 42.2233 18.6036 42.7314 19.6198 43.7476C20.6803 44.8081 21.7407 45.3383 22.8011 45.3383C24.6569 45.3383 26.7557 43.7697 29.0975 40.6326C31.2626 37.7164 34.3334 32.3258 38.3101 24.4609C40.5193 20.0424 42.2867 16.6402 43.6122 14.2542C44.9378 11.824 45.7773 10.388 46.1308 9.94616C46.7494 9.28339 47.368 8.952 47.9866 8.952C48.5168 8.952 49.4447 9.26129 50.7702 9.87988C50.9911 10.0124 51.1016 10.1671 51.1016 10.3438C51.1016 10.6089 50.9469 10.852 50.6376 11.0729C50.3284 11.2938 50.0632 11.3822 49.8423 11.338C48.9144 11.2054 45.9099 16.0437 40.8286 25.8527C39.2821 28.8573 37.7798 31.5747 36.3217 34.0049C34.8636 36.435 33.4718 38.5559 32.1463 40.3675C31.0416 41.914 29.4731 43.3058 27.4406 44.543C25.4522 45.736 23.5965 46.3324 21.8733 46.3324Z" fill="#0D0A0B"/>
</g>
<path fill-rule="evenodd" clip-rule="evenodd" d="M77.3592 50.2456C51.3357 52.4793 33.2427 56.3647 22.1632 61L21.0974 58.4525C32.5706 53.6524 50.9992 49.7365 77.1231 47.4942C103.273 45.2496 137.223 44.6753 179.792 46.6103L179.667 49.369C137.18 47.4378 103.357 48.0141 77.3592 50.2456Z" fill="#FFBF47"/>
<defs>
<filter id="filter0_d_18_48" x="158.729" y="21.0808" width="30.932" height="28.9436" filterUnits="userSpaceOnUse" color-interpolation-filters="sRGB">
<feFlood flood-opacity="0" result="BackgroundImageFix"/>
<feColorMatrix in="SourceAlpha" type="matrix" values="0 0 0 0 0 0 0 0 0 0 0 0 0 0 0 0 0 0 127 0" result="hardAlpha"/>
<feOffset dy="4"/>
<feGaussianBlur stdDeviation="2"/>
<feComposite in2="hardAlpha" operator="out"/>
<feColorMatrix type="matrix" values="0 0 0 0 0 0 0 0 0 0 0 0 0 0 0 0 0 0 0.25 0"/>
<feBlend mode="normal" in2="BackgroundImageFix" result="effect1_dropShadow_18_48"/>
<feBlend mode="normal" in="SourceGraphic" in2="effect1_dropShadow_18_48" result="shape"/>
</filter>
<filter id="filter1_d_18_48" x="145.2" y="6.10205" width="28.9437" height="44.4708" filterUnits="userSpaceOnUse" color-interpolation-filters="sRGB">
<feFlood flood-opacity="0" result="BackgroundImageFix"/>
<feColorMatrix in="SourceAlpha" type="matrix" values="0 0 0 0 0 0 0 0 0 0 0 0 0 0 0 0 0 0 127 0" result="hardAlpha"/>
<feOffset dy="4"/>
<feGaussianBlur stdDeviation="2"/>
<feComposite in2="hardAlpha" operator="out"/>
<feColorMatrix type="matrix" values="0 0 0 0 0 0 0 0 0 0 0 0 0 0 0 0 0 0 0.25 0"/>
<feBlend mode="normal" in2="BackgroundImageFix" result="effect1_dropShadow_18_48"/>
<feBlend mode="normal" in="SourceGraphic" in2="effect1_dropShadow_18_48" result="shape"/>
</filter>
<filter id="filter2_d_18_48" x="126.977" y="20.4844" width="29.275" height="29.3413" filterUnits="userSpaceOnUse" color-interpolation-filters="sRGB">
<feFlood flood-opacity="0" result="BackgroundImageFix"/>
<feColorMatrix in="SourceAlpha" type="matrix" values="0 0 0 0 0 0 0 0 0 0 0 0 0 0 0 0 0 0 127 0" result="hardAlpha"/>
<feOffset dy="4"/>
<feGaussianBlur stdDeviation="2"/>
<feComposite in2="hardAlpha" operator="out"/>
<feColorMatrix type="matrix" values="0 0 0 0 0 0 0 0 0 0 0 0 0 0 0 0 0 0 0.25 0"/>
<feBlend mode="normal" in2="BackgroundImageFix" result="effect1_dropShadow_18_48"/>
<feBlend mode="normal" in="SourceGraphic" in2="effect1_dropShadow_18_48" result="shape"/>
</filter>
<filter id="filter3_d_18_48" x="108.257" y="18.6948" width="31.2634" height="31.405" filterUnits="userSpaceOnUse" color-interpolation-filters="sRGB">
<feFlood flood-opacity="0" result="BackgroundImageFix"/>
<feColorMatrix in="SourceAlpha" type="matrix" values="0 0 0 0 0 0 0 0 0 0 0 0 0 0 0 0 0 0 127 0" result="hardAlpha"/>
<feOffset dy="4"/>
<feGaussianBlur stdDeviation="2"/>
<feComposite in2="hardAlpha" operator="out"/>
<feColorMatrix type="matrix" values="0 0 0 0 0 0 0 0 0 0 0 0 0 0 0 0 0 0 0.25 0"/>
<feBlend mode="normal" in2="BackgroundImageFix" result="effect1_dropShadow_18_48"/>
<feBlend mode="normal" in="SourceGraphic" in2="effect1_dropShadow_18_48" result="shape"/>
</filter>
<filter id="filter4_d_18_48" x="83.8436" y="21.3458" width="36.1679" height="28.6786" filterUnits="userSpaceOnUse" color-interpolation-filters="sRGB">
<feFlood flood-opacity="0" result="BackgroundImageFix"/>
<feColorMatrix in="SourceAlpha" type="matrix" values="0 0 0 0 0 0 0 0 0 0 0 0 0 0 0 0 0 0 127 0" result="hardAlpha"/>
<feOffset dy="4"/>
<feGaussianBlur stdDeviation="2"/>
<feComposite in2="hardAlpha" operator="out"/>
<feColorMatrix type="matrix" values="0 0 0 0 0 0 0 0 0 0 0 0 0 0 0 0 0 0 0.25 0"/>
<feBlend mode="normal" in2="BackgroundImageFix" result="effect1_dropShadow_18_48"/>
<feBlend mode="normal" in="SourceGraphic" in2="effect1_dropShadow_18_48" result="shape"/>
</filter>
<filter id="filter5_d_18_48" x="65.5541" y="20.4844" width="29.275" height="29.3413" filterUnits="userSpaceOnUse" color-interpolation-filters="sRGB">
<feFlood flood-opacity="0" result="BackgroundImageFix"/>
<feColorMatrix in="SourceAlpha" type="matrix" values="0 0 0 0 0 0 0 0 0 0 0 0 0 0 0 0 0 0 127 0" result="hardAlpha"/>
<feOffset dy="4"/>
<feGaussianBlur stdDeviation="2"/>
<feComposite in2="hardAlpha" operator="out"/>
<feColorMatrix type="matrix" values="0 0 0 0 0 0 0 0 0 0 0 0 0 0 0 0 0 0 0.25 0"/>
<feBlend mode="normal" in2="BackgroundImageFix" result="effect1_dropShadow_18_48"/>
<feBlend mode="normal" in="SourceGraphic" in2="effect1_dropShadow_18_48" result="shape"/>
</filter>
<filter id="filter6_d_18_48" x="46.5621" y="20.6831" width="32.1912" height="29.4076" filterUnits="userSpaceOnUse" color-interpolation-filters="sRGB">
<feFlood flood-opacity="0" result="BackgroundImageFix"/>
<feColorMatrix in="SourceAlpha" type="matrix" values="0 0 0 0 0 0 0 0 0 0 0 0 0 0 0 0 0 0 127 0" result="hardAlpha"/>
<feOffset dy="4"/>
<feGaussianBlur stdDeviation="2"/>
<feComposite in2="hardAlpha" operator="out"/>
<feColorMatrix type="matrix" values="0 0 0 0 0 0 0 0 0 0 0 0 0 0 0 0 0 0 0.25 0"/>
<feBlend mode="normal" in2="BackgroundImageFix" result="effect1_dropShadow_18_48"/>
<feBlend mode="normal" in="SourceGraphic" in2="effect1_dropShadow_18_48" result="shape"/>
</filter>
<filter id="filter7_d_18_48" x="0.839966" y="0.335938" width="84.0202" height="53.9965" filterUnits="userSpaceOnUse" color-interpolation-filters="sRGB">
<feFlood flood-opacity="0" result="BackgroundImageFix"/>
<feColorMatrix in="SourceAlpha" type="matrix" values="0 0 0 0 0 0 0 0 0 0 0 0 0 0 0 0 0 0 127 0" result="hardAlpha"/>
<feOffset dy="4"/>
<feGaussianBlur stdDeviation="2"/>
<feComposite in2="hardAlpha" operator="out"/>
<feColorMatrix type="matrix" values="0 0 0 0 0 0 0 0 0 0 0 0 0 0 0 0 0 0 0.25 0"/>
<feBlend mode="normal" in2="BackgroundImageFix" result="effect1_dropShadow_18_48"/>
<feBlend mode="normal" in="SourceGraphic" in2="effect1_dropShadow_18_48" result="shape"/>
</filter>
</defs>
</svg>
